PathFileType	4	(x/y/z)	TRC_MarkerData\Passive\Passive_Pref0005.trc
DataRate	CameraRate	NumFrames	NumMarkers	Units	OrigDataRate	OrigDataStartFrame	OrigNumFrames
240	240	11	50	mm	240	157	313
Frame#	Time	R_AC			L_AC			HEAD			STERN			C7			L_IC			R_IC			L_ASIS			R_ASIS			L_GT			R_GT			L_PSIS			R_PSIS			SACRAL			L_LAT_KNEE			L_MED_KNEE			R_LAT_KNEE			R_MED_KNEE			L_LAT_ANK			L_MED_ANK			R_LAT_ANK			R_MED_ANK			L_THIGH_PROX_POST			L_THIGH_PROX_ANT			L_THIGH_DIST_ANT			L_THIGH_DIST_POST			R_THIGH_PROX_POST			R_THIGH_PROX_ANT			R_THIGH_DIST_ANT			R_THIGH_DIST_POST			L_SHANK_PROX_POST			L_SHANK_PROX_ANT			L_SHANK_DIST_ANT			L_SHANK_DIST_POST			R_SHANK_PROX_POST			R_SHANK_PROX_ANT			R_SHANK_DIST_ANT			R_SHANK_DIST_POST			L_HEEL_LAT			L_HEEL_SUP			L_HEEL_MED			R_HEEL_LAT			R_HEEL_SUP			R_HEEL_MED			L_1ST_MET			L_5TH_MET			L_TOE			R_1ST_MET			R_5TH_MET			R_TOE			
		X1	Y1	Z1	X2	Y2	Z2	X3	Y3	Z3	X4	Y4	Z4	X5	Y5	Z5	X6	Y6	Z6	X7	Y7	Z7	X8	Y8	Z8	X9	Y9	Z9	X10	Y10	Z10	X11	Y11	Z11	X12	Y12	Z12	X13	Y13	Z13	X14	Y14	Z14	X15	Y15	Z15	X16	Y16	Z16	X17	Y17	Z17	X18	Y18	Z18	X19	Y19	Z19	X20	Y20	Z20	X21	Y21	Z21	X22	Y22	Z22	X23	Y23	Z23	X24	Y24	Z24	X25	Y25	Z25	X26	Y26	Z26	X27	Y27	Z27	X28	Y28	Z28	X29	Y29	Z29	X30	Y30	Z30	X31	Y31	Z31	X32	Y32	Z32	X33	Y33	Z33	X34	Y34	Z34	X35	Y35	Z35	X36	Y36	Z36	X37	Y37	Z37	X38	Y38	Z38	X39	Y39	Z39	X40	Y40	Z40	X41	Y41	Z41	X42	Y42	Z42	X43	Y43	Z43	X44	Y44	Z44	X45	Y45	Z45	X46	Y46	Z46	X47	Y47	Z47	X48	Y48	Z48	X49	Y49	Z49	X50	Y50	Z50	

157	0.65208	-60.138	1496	459.95	-94.304	1524.5	55.066	-48.03	1831.8	271.28	-6.4787	1472.8	254.55	-140.1	1553	260.11	NaN	NaN	NaN	-90.978	1077.6	430.69	-64.946	1017.2	122.26	-29.498	1026.9	386.79	-177.29	945.4	86.182	-98.905	946.14	446.17	-250.26	1031.2	226.34	-241.65	1024.5	332.87	-258	994.51	278.72	-250.16	553.31	135.69	-247.04	573.28	273.69	46.998	547.61	399.89	46.876	546.52	266.46	-484.33	141.62	176.05	-493.95	145.26	264.84	212.55	95.41	334.39	233.65	160.87	251.13	-228.27	779.14	106.94	-169.19	758.88	102.68	-183.78	689.27	119.94	-245.98	708.93	118.21	-53.827	760.69	442.13	10.474	787.25	436.57	33.397	714.94	427.73	-33.153	690.19	429.04	-313.55	473.15	158.36	-254.94	449.99	167.48	-274.93	404.21	178.04	-327.38	426.4	159.03	79.118	356.1	397.28	137.42	390.57	390.79	167.24	323.99	374.61	108.3	288.61	379.08	-553.99	76.526	180.61	-567.66	106.9	210.64	-565.28	81.804	246.43	181.62	23.899	289.6	165.5	56.614	261.04	199.13	51.14	231.91	-348.22	45.987	298.99	-358.69	45.186	189	-296.43	51.114	272.36	369.42	166.32	277.77	354.55	119.39	375.6	400.97	187.32	326.62
158	0.65626	-54.249	1494.9	460.53	-88.267	1523.7	55.639	-42.494	1830.9	271.8	-0.55408	1471.8	255.1	-134.2	1552	260.7	NaN	NaN	NaN	-85.085	1076.3	430.59	-59.401	1016.2	121.97	-23.663	1026.2	386.53	-171.95	944.45	86.016	-92.85	945.37	445.88	-244.55	1030.1	226.24	-235.89	1023.3	332.74	-252.23	993.38	278.58	-245.83	552.54	135.61	-242.53	572.52	273.6	54.203	547.31	398.6	53.479	546.31	265.35	-483.44	142.58	176.09	-493.01	146.31	264.89	215.59	94.285	332.76	236.91	158.72	249.01	-223.36	778.41	106.79	-164.3	758.02	102.4	-179.08	688.43	119.73	-241.26	708.27	118.13	-47.023	760.15	441.49	17.055	786.94	435.84	40.223	714.72	426.78	-26.245	689.75	428.14	-309.85	472.89	158.31	-251.45	449.28	167.42	-271.78	403.65	177.99	-324.07	426.25	158.98	85.153	355.53	395.99	143.67	389.51	389	172.79	322.66	372.67	113.6	287.8	377.68	-553.55	77.933	180.69	-567.01	108.38	210.75	-564.79	83.282	246.51	183.27	23.194	288.59	167.75	55.876	259.77	201.09	49.492	230.66	-347.99	46.007	299.02	-358.44	45.291	189.03	-296.15	50.868	272.39	372.74	162.9	274.96	357.75	117.08	373.31	404.82	183.87	323.62
159	0.66044	-48.363	1493.8	461.12	-82.186	1522.9	56.232	-36.947	1830	272.33	5.3966	1470.9	255.68	-128.28	1551.1	261.3	NaN	NaN	NaN	-79.169	1075.1	430.49	-53.818	1015.2	121.68	-17.807	1025.4	386.28	-166.56	943.49	85.84	-86.768	944.63	445.58	-238.82	1029.1	226.1	-230.11	1022.1	332.58	-246.43	992.25	278.41	-241.4	551.75	135.52	-237.91	571.75	273.52	61.435	547.05	397.33	60.064	546.12	264.27	-482.5	143.6	176.13	-492.01	147.42	264.95	218.48	93.224	331.22	240.06	156.54	246.94	-218.41	777.67	106.64	-159.36	757.16	102.12	-174.33	687.59	119.52	-236.48	707.59	118.05	-40.167	759.66	440.86	23.667	786.67	435.1	47.083	714.54	425.82	-19.302	689.35	427.24	-306.07	472.63	158.25	-247.87	448.55	167.36	-268.55	403.08	177.93	-320.67	426.11	158.94	91.17	355.01	394.73	149.91	388.48	387.23	178.3	321.35	370.76	118.88	287.04	376.32	-553.09	79.427	180.76	-566.31	109.96	210.86	-564.27	84.853	246.59	184.67	22.618	287.71	169.8	55.259	258.59	202.82	47.886	229.51	-347.76	46.035	299.04	-358.19	45.408	189.06	-295.85	50.616	272.42	375.95	159.3	272.2	360.8	114.68	371.09	408.6	180.22	320.65
160	0.66462	-42.477	1492.8	461.73	-76.063	1522.2	56.841	-31.387	1829.1	272.88	11.373	1470	256.29	-122.33	1550.2	261.91	NaN	NaN	NaN	-73.24	1073.8	430.37	-48.198	1014.2	121.38	-11.932	1024.7	386.02	-161.14	942.53	85.655	-80.659	943.92	445.28	-233.06	1028	225.94	-224.31	1021	332.39	-240.61	991.12	278.22	-236.87	550.95	135.44	-233.2	570.95	273.43	68.68	546.84	396.09	66.622	545.95	263.22	-481.5	144.68	176.17	-490.94	148.6	265.01	221.23	92.237	329.77	243.13	154.35	244.93	-213.41	776.92	106.47	-154.37	756.29	101.84	-169.51	686.75	119.3	-231.64	706.9	117.97	-33.266	759.21	440.25	30.304	786.44	434.36	53.968	714.41	424.85	-12.332	688.99	426.35	-302.2	472.36	158.19	-244.21	447.82	167.3	-265.24	402.51	177.87	-317.19	425.97	158.9	97.165	354.53	393.51	156.13	387.48	385.51	183.78	320.08	368.89	124.12	286.32	375.01	-552.57	81.018	180.84	-565.54	111.65	210.97	-563.7	86.527	246.67	185.85	22.179	286.96	171.68	54.77	257.52	204.35	46.345	228.47	-347.52	46.074	299.08	-357.92	45.538	189.1	-295.55	50.357	272.46	379.08	155.57	269.51	363.71	112.21	368.94	412.33	176.41	317.76
161	0.6688	-36.593	1491.7	462.37	-69.9	1521.5	57.464	-25.817	1828.2	273.43	17.374	1469.1	256.92	-116.37	1549.3	262.54	NaN	NaN	NaN	-67.304	1072.6	430.24	-42.542	1013.2	121.08	-6.0385	1024.1	385.76	-155.69	941.56	85.462	-74.527	943.26	444.97	-227.29	1026.9	225.75	-218.49	1019.8	332.18	-234.76	989.99	277.99	-232.23	550.13	135.36	-228.37	570.14	273.34	75.921	546.67	394.89	73.145	545.8	262.19	-480.42	145.83	176.21	-489.79	149.85	265.07	223.85	91.329	328.42	246.13	152.19	243.01	-208.35	776.17	106.31	-149.32	755.43	101.55	-164.62	685.9	119.08	-226.73	706.19	117.9	-26.329	758.82	439.66	36.958	786.27	433.62	60.87	714.32	423.89	-5.3439	688.68	425.47	-298.22	472.1	158.14	-240.46	447.07	167.25	-261.84	401.93	177.82	-313.6	425.84	158.85	103.13	354.1	392.33	162.31	386.54	383.83	189.23	318.85	367.08	129.33	285.66	373.76	-552.01	82.718	180.92	-564.7	113.45	211.08	-563.08	88.317	246.75	186.85	21.882	286.31	173.43	54.417	256.54	205.72	44.889	227.53	-347.28	46.127	299.12	-357.63	45.684	189.13	-295.23	50.089	272.5	382.13	151.72	266.93	366.5	109.66	366.88	416	172.45	314.98
162	0.67298	-30.711	1490.7	463.01	-63.695	1520.8	58.099	-20.237	1827.4	274	23.399	1468.3	257.58	-110.39	1548.4	263.16	NaN	NaN	NaN	-61.368	1071.4	430.11	-36.854	1012.2	120.78	-0.13029	1023.4	385.5	-150.2	940.6	85.262	-68.373	942.65	444.66	-221.49	1025.9	225.54	-212.66	1018.6	331.94	-228.89	988.88	277.74	-227.47	549.28	135.27	-223.41	569.3	273.25	83.148	546.55	393.73	79.626	545.68	261.21	-479.27	147.05	176.25	-488.57	151.17	265.13	226.36	90.501	327.17	249.07	150.05	241.18	-203.24	775.41	106.15	-144.21	754.58	101.27	-159.65	685.06	118.85	-221.75	705.48	117.83	-19.363	758.48	439.09	43.624	786.14	432.89	67.781	714.28	422.93	1.6535	688.43	424.62	-294.13	471.83	158.08	-236.6	446.31	167.19	-258.35	401.36	177.77	-309.92	425.71	158.81	109.07	353.73	391.21	168.47	385.64	382.22	194.64	317.68	365.33	134.51	285.06	372.56	-551.38	84.536	181.01	-563.78	115.38	211.19	-562.4	90.235	246.83	187.7	21.727	285.76	175.05	54.2	255.66	206.93	43.535	226.69	-347.02	46.196	299.17	-357.32	45.848	189.17	-294.9	49.811	272.55	385.12	147.8	264.48	369.15	107.06	364.94	419.61	168.37	312.33
163	0.67716	-24.829	1489.7	463.67	-57.452	1520.2	58.743	-14.647	1826.6	274.57	29.447	1467.5	258.25	-104.39	1547.6	263.79	NaN	NaN	NaN	-55.437	1070.3	429.96	-31.134	1011.2	120.47	5.7904	1022.8	385.24	-144.67	939.65	85.056	-62.202	942.1	444.35	-215.68	1024.8	225.3	-206.83	1017.5	331.69	-223	987.79	277.47	-222.58	548.42	135.19	-218.32	568.45	273.16	90.351	546.49	392.63	86.061	545.6	260.28	-478.02	148.36	176.29	-487.25	152.59	265.19	228.77	89.753	326.04	251.95	147.97	239.47	-198.06	774.66	105.98	-139.04	753.73	101	-154.59	684.22	118.62	-216.67	704.75	117.75	-12.38	758.2	438.54	50.298	786.06	432.16	74.694	714.28	421.98	8.6529	688.23	423.79	-289.92	471.56	158.03	-232.63	445.54	167.14	-254.76	400.78	177.72	-306.12	425.58	158.77	114.98	353.42	390.14	174.59	384.8	380.67	200.02	316.58	363.66	139.66	284.53	371.44	-550.69	86.486	181.09	-562.77	117.44	211.3	-561.65	92.293	246.92	188.43	21.706	285.31	176.58	54.116	254.87	208.03	42.299	225.94	-346.74	46.286	299.23	-357	46.032	189.21	-294.55	49.524	272.6	388.03	143.83	262.19	371.69	104.4	363.13	423.15	164.2	309.86
164	0.68134	-18.949	1488.7	464.34	-51.171	1519.5	59.395	-9.0476	1825.9	275.16	35.516	1466.7	258.94	-98.372	1546.9	264.42	NaN	NaN	NaN	-49.515	1069.1	429.8	-25.386	1010.3	120.17	11.721	1022.3	384.97	-139.11	938.71	84.844	-56.017	941.61	444.04	-209.85	1023.8	225.05	-200.99	1016.4	331.43	-217.09	986.73	277.17	-217.56	547.54	135.1	-213.09	567.57	273.07	97.523	546.47	391.59	92.45	545.55	259.4	-476.68	149.75	176.33	-485.82	154.09	265.26	231.06	89.082	325.01	254.78	145.96	237.88	-192.81	773.9	105.83	-133.78	752.89	100.73	-149.44	683.39	118.39	-211.5	704	117.68	-5.3902	757.99	438.02	56.975	786.04	431.43	81.604	714.34	421.04	15.648	688.08	422.99	-285.59	471.3	157.97	-228.54	444.76	167.09	-251.05	400.2	177.67	-302.2	425.46	158.72	120.85	353.17	389.14	180.67	384.02	379.22	205.36	315.54	362.09	144.77	284.07	370.4	-549.93	88.579	181.18	-561.66	119.65	211.41	-560.83	94.504	247	189.06	21.812	284.95	178.03	54.159	254.18	209.02	41.191	225.29	-346.44	46.402	299.29	-356.65	46.238	189.25	-294.18	49.225	272.65	390.87	139.83	260.08	374.1	101.7	361.45	426.62	159.97	307.57
165	0.68552	-13.07	1487.8	465.01	-44.854	1519	60.051	-3.4404	1825.2	275.76	41.603	1466	259.64	-92.34	1546.1	265.05	NaN	NaN	NaN	-43.605	1068	429.63	-19.611	1009.4	119.86	17.658	1021.7	384.71	-133.51	937.78	84.628	-49.825	941.18	443.74	-204.01	1022.9	224.77	-195.16	1015.3	331.14	-211.16	985.7	276.86	-212.38	546.63	135.02	-207.7	566.67	272.97	104.66	546.52	390.61	98.794	545.55	258.58	-475.22	151.24	176.37	-484.29	155.7	265.33	233.26	88.483	324.11	257.55	144.02	236.42	-187.49	773.15	105.68	-128.45	752.07	100.48	-144.18	682.56	118.16	-206.22	703.25	117.62	1.5951	757.83	437.53	63.653	786.07	430.72	88.503	714.45	420.13	22.632	688	422.22	-281.11	471.03	157.91	-224.32	443.97	167.04	-247.23	399.62	177.62	-298.15	425.35	158.68	126.67	352.99	388.22	186.7	383.3	377.85	210.65	314.57	360.61	149.84	283.68	369.45	-549.08	90.826	181.27	-560.44	122.02	211.52	-559.92	96.879	247.08	189.61	22.03	284.67	179.4	54.319	253.59	209.92	40.221	224.74	-346.12	46.547	299.36	-356.28	46.469	189.29	-293.8	48.915	272.71	393.64	135.84	258.17	376.41	98.975	359.92	430.01	155.69	305.49
166	0.6897	-7.1923	1487	465.69	-38.503	1518.5	60.709	2.1743	1824.6	276.36	47.705	1465.4	260.35	-86.293	1545.5	265.68	NaN	NaN	NaN	-37.71	1067	429.46	-13.812	1008.6	119.55	23.599	1021.3	384.44	-127.88	936.88	84.407	-43.629	940.83	443.43	-198.15	1021.9	224.47	-189.33	1014.4	330.85	-205.23	984.72	276.53	-207.04	545.69	134.92	-202.15	565.75	272.86	111.76	546.62	389.71	105.09	545.6	257.83	-473.65	152.83	176.41	-482.63	157.42	265.41	235.36	87.949	323.33	260.26	142.18	235.11	-182.08	772.39	105.55	-123.04	751.25	100.25	-138.8	681.75	117.94	-200.83	702.49	117.55	8.5632	757.75	437.06	70.326	786.17	430.02	95.389	714.62	419.23	29.601	687.98	421.49	-276.49	470.76	157.85	-219.97	443.16	166.98	-243.28	399.04	177.57	-293.96	425.24	158.63	132.44	352.88	387.38	192.67	382.65	376.59	215.88	313.67	359.25	154.86	283.37	368.61	-548.14	93.239	181.36	-559.09	124.56	211.63	-558.91	99.432	247.16	190.11	22.347	284.46	180.71	54.586	253.09	210.74	39.392	224.27	-345.77	46.727	299.43	-355.88	46.728	189.33	-293.4	48.595	272.78	396.33	131.88	256.46	378.6	96.227	358.55	433.29	151.4	303.62
167	0.69388	-1.3174	1486.1	466.37	-32.121	1518	61.368	7.796	1824	276.98	53.819	1464.8	261.07	-80.236	1544.9	266.3	NaN	NaN	NaN	-31.832	1066	429.28	-7.9905	1007.7	119.25	29.542	1020.9	384.17	-122.21	936	84.183	-37.435	940.55	443.14	-192.29	1021	224.15	-183.5	1013.4	330.55	-199.28	983.79	276.2	-201.53	544.73	134.82	-196.42	564.8	272.73	118.82	546.79	388.87	111.36	545.7	257.14	-471.95	154.52	176.46	-480.83	159.25	265.49	237.36	87.474	322.67	262.89	140.43	233.96	-176.57	771.64	105.43	-117.53	750.46	100.03	-133.3	680.96	117.72	-195.31	701.71	117.47	15.503	757.73	436.61	76.994	786.33	429.33	102.26	714.85	418.37	36.551	688.03	420.81	-271.71	470.49	157.78	-215.47	442.34	166.92	-239.19	398.45	177.51	-289.62	425.14	158.57	138.16	352.84	386.64	198.58	382.06	375.43	221.05	312.84	358	159.82	283.13	367.87	-547.1	95.827	181.46	-557.6	127.28	211.73	-557.79	102.17	247.24	190.55	22.747	284.31	181.96	54.946	252.68	211.5	38.706	223.88	-345.38	46.946	299.5	-355.45	47.019	189.37	-292.97	48.264	272.84	398.92	127.97	254.95	380.68	93.473	357.34	436.45	147.13	301.97
